<svg width="20" height="20" viewBox="0 0 20 20" fill="none" xmlns="http://www.w3.org/2000/svg">
<path fill-rule="evenodd" clip-rule="evenodd" d="M4.6875 1.25H7.5C9.22589 1.25 10.625 2.64911 10.625 4.375V5.9375C10.625 6.80044 11.3246 7.5 12.1875 7.5H13.75C15.4759 7.5 16.875 8.89911 16.875 10.625V17.1875C16.875 18.0504 16.1754 18.75 15.3125 18.75H4.6875C3.82455 18.75 3.125 18.0504 3.125 17.1875V2.8125C3.125 1.94955 3.82456 1.25 4.6875 1.25ZM8.125 14.375C8.125 14.0298 7.84518 13.75 7.5 13.75C7.15482 13.75 6.875 14.0298 6.875 14.375V15C6.875 15.3452 7.15482 15.625 7.5 15.625C7.84518 15.625 8.125 15.3452 8.125 15V14.375ZM10 11.875C10.3452 11.875 10.625 12.1548 10.625 12.5V15C10.625 15.3452 10.3452 15.625 10 15.625C9.65482 15.625 9.375 15.3452 9.375 15V12.5C9.375 12.1548 9.65482 11.875 10 11.875ZM13.125 10.625C13.125 10.2798 12.8452 10 12.5 10C12.1548 10 11.875 10.2798 11.875 10.625V15C11.875 15.3452 12.1548 15.625 12.5 15.625C12.8452 15.625 13.125 15.3452 13.125 15V10.625Z" fill="white" fill-opacity="0.65"/>
<path d="M11.875 4.375C11.875 3.28079 11.4733 2.2804 10.8093 1.51325C13.6418 2.25315 15.8719 4.48323 16.6117 7.31567C15.8446 6.6517 14.8442 6.25 13.75 6.25H12.1875C12.0149 6.25 11.875 6.11009 11.875 5.9375V4.375Z" fill="white" fill-opacity="0.65"/>
</svg>
